# xmcd CD database file
#
# Track frame offsets:
#	150
#	20694
#	43830
#	64230
#	88805
#	106043
#	128577
#	152964
#	172002
#	197190
#	218183
#
# Disc length: 3273 seconds
#
# Revision: 0
# Processed by: cddbd v1.4PL0 Copyright (c) Steve Scherf et al.
# Submitted via: CDex 1.50
#
DISCID=9d0cc70b
DTITLE=Tab Benoit - The Sea Saint Sessions
DYEAR=2003
DGENRE=Blues
TTITLE0=Baby Blue
TTITLE1=Boat Launch Baby
TTITLE2=Sufferin' Mind
TTITLE3=Hustlin' Down in New Orleans
TTITLE4=Solid Simple Thing
TTITLE5=What I Have to Do
TTITLE6=Monk's Blues
TTITLE7=Making the Bend
TTITLE8=Howlin' for My Darling
TTITLE9=Darkness
TTITLE10=Plareen Man
EXTD=YEAR: 2003
EXTT0=
EXTT1=
EXTT2=
EXTT3=
EXTT4=
EXTT5=
EXTT6=
EXTT7=
EXTT8=
EXTT9=
EXTT10=
PLAYORDER=
